<mxfile host="app.diagrams.net" modified="2024-02-07T00:50:17.748Z" agent="Mozilla/5.0 (Windows NT 10.0; Win64; x64) AppleWebKit/537.36 (KHTML, like Gecko) Chrome/120.0.0.0 Safari/537.36 OPR/106.0.0.0" etag="hp0WG812aNozY053e2_w" version="23.0.2" type="device">
  <diagram name="Page-1" id="H5oDUEZ8zaucSiNkWKhN">
    <mxGraphModel dx="1410" dy="768" grid="1" gridSize="10" guides="1" tooltips="1" connect="1" arrows="1" fold="1" page="1" pageScale="1" pageWidth="850" pageHeight="1100" math="0" shadow="0">
      <root>
        <mxCell id="0" />
        <mxCell id="1" parent="0" />
        <mxCell id="rMG5aHiFlP0d7Pj4rfFD-1" value="" style="rounded=0;whiteSpace=wrap;html=1;" vertex="1" parent="1">
          <mxGeometry x="260" y="190" width="330" height="720" as="geometry" />
        </mxCell>
        <mxCell id="rMG5aHiFlP0d7Pj4rfFD-2" value="Main Page" style="text;html=1;strokeColor=none;fillColor=none;align=center;verticalAlign=middle;whiteSpace=wrap;rounded=0;" vertex="1" parent="1">
          <mxGeometry x="395" y="130" width="60" height="30" as="geometry" />
        </mxCell>
        <mxCell id="rMG5aHiFlP0d7Pj4rfFD-3" value="Title" style="rounded=0;whiteSpace=wrap;html=1;" vertex="1" parent="1">
          <mxGeometry x="365" y="230" width="120" height="30" as="geometry" />
        </mxCell>
        <mxCell id="rMG5aHiFlP0d7Pj4rfFD-4" value="" style="rounded=0;whiteSpace=wrap;html=1;" vertex="1" parent="1">
          <mxGeometry x="310" y="290" width="230" height="590" as="geometry" />
        </mxCell>
        <mxCell id="rMG5aHiFlP0d7Pj4rfFD-5" value="FlatList" style="text;html=1;strokeColor=none;fillColor=none;align=center;verticalAlign=middle;whiteSpace=wrap;rounded=0;" vertex="1" parent="1">
          <mxGeometry x="395" y="500" width="60" height="30" as="geometry" />
        </mxCell>
      </root>
    </mxGraphModel>
  </diagram>
</mxfile>
